<?xml version="1.0" standalone="no"?>
<!DOCTYPE svg PUBLIC "-//W3C//DTD SVG 20010904//EN"
 "http://www.w3.org/TR/2001/REC-SVG-20010904/DTD/svg10.dtd">
<svg version="1.0" xmlns="http://www.w3.org/2000/svg"
 width="1920.000000pt" height="1080.000000pt" viewBox="0 0 1920.000000 1080.000000"
 preserveAspectRatio="xMidYMid meet">

<g transform="translate(0.000000,1080.000000) scale(0.100000,-0.100000)"
fill="#000000" stroke="none">
<path d="M0 5400 l0 -5400 9600 0 9600 0 0 5400 0 5400 -9600 0 -9600 0 0
-5400z m11205 2520 c22 -25 13 -67 -18 -80 -12 -5 -80 -18 -152 -30 -71 -12
-130 -22 -131 -23 -8 -13 -414 -1062 -414 -1070 0 -7 18 -24 38 -39 71 -50
145 -122 158 -155 8 -18 14 -53 14 -78 0 -42 -5 -51 -49 -95 -48 -48 -48 -48
-26 -60 13 -7 31 -27 40 -45 39 -71 -15 -155 -99 -155 -99 0 -145 109 -79 182
15 17 -6 18 -445 18 l-462 0 20 -32 c29 -48 26 -91 -11 -133 -28 -31 -36 -35
-81 -35 -41 0 -54 5 -79 29 -37 37 -41 104 -8 145 l20 26 -47 0 c-74 0 -108
47 -67 92 15 17 48 18 617 18 528 0 604 2 624 16 24 17 28 50 9 76 -23 30
-219 178 -236 178 -9 0 -229 18 -489 39 -379 30 -476 41 -488 53 -12 12 -26
99 -55 338 -35 287 -38 325 -25 345 14 21 25 23 148 28 73 4 369 12 658 17
289 6 539 13 556 16 30 4 33 10 103 188 45 116 78 187 89 191 28 12 264 53
308 54 29 1 46 -5 59 -19z m1693 -1877 c-3 -17 -152 -18 -2946 -21 -2937 -2
-2942 -2 -2942 18 0 20 6 20 2946 20 2800 0 2945 -1 2942 -17z m-5565 -175 c3
-13 36 -204 73 -425 38 -222 71 -399 75 -395 4 4 57 185 118 402 62 217 116
405 121 418 9 21 14 22 144 22 l135 0 10 -36 c86 -313 235 -826 238 -819 1 6
34 197 73 424 39 228 74 419 76 423 8 13 304 10 304 -3 0 -6 -54 -289 -120
-629 -66 -339 -120 -620 -120 -624 0 -3 -76 -6 -168 -6 l-169 0 -128 435 c-71
239 -132 432 -135 428 -4 -5 -55 -172 -115 -373 -59 -201 -116 -393 -127 -427
l-19 -63 -167 0 -167 0 -119 618 c-66 339 -121 625 -124 635 -4 16 8 17 151
17 152 0 155 0 160 -22z m2109 -395 c5 -436 6 -452 50 -516 61 -86 276 -102
363 -26 69 61 70 66 73 537 l3 422 140 0 140 0 -3 -457 c-3 -448 -4 -459 -26
-523 -50 -141 -151 -237 -295 -282 -60 -19 -94 -23 -202 -23 -185 1 -279 32
-377 123 -58 54 -92 109 -121 195 -20 58 -21 88 -25 500 -2 241 -1 445 2 453
4 11 33 14 140 14 l134 0 4 -417z m1843 406 c98 -18 183 -70 229 -140 82 -124
64 -306 -41 -398 l-44 -39 55 -25 c66 -31 131 -93 160 -156 17 -37 21 -65 21
-147 0 -96 -2 -105 -35 -170 -25 -50 -49 -79 -85 -106 -93 -70 -103 -72 -457
-76 l-318 -3 0 629 c0 346 3 632 7 635 11 11 445 8 508 -4z m1625 -119 l0
-130 -230 0 -231 0 3 -122 3 -123 218 -3 217 -2 0 -125 0 -125 -217 -2 -218
-3 0 -125 0 -125 228 -3 227 -2 0 -125 0 -125 -370 0 -370 0 0 628 c0 346 3
632 7 635 3 4 170 7 370 7 l363 0 0 -130z m-4883 -1583 c132 -38 241 -124 293
-230 90 -186 37 -434 -116 -535 -28 -19 -40 -32 -30 -32 35 0 146 -61 200
-111 39 -35 67 -74 92 -125 33 -66 38 -84 42 -172 5 -118 -8 -189 -54 -281
-39 -79 -106 -147 -184 -186 -117 -59 -110 -58 -572 -62 l-428 -4 0 881 0 882
353 -5 c277 -3 363 -8 404 -20z m1535 -559 c4 -631 3 -619 61 -704 59 -88 191
-128 350 -105 125 17 193 67 234 172 16 40 18 102 23 629 l5 585 193 3 193 2
-3 -622 c-4 -563 -6 -629 -22 -688 -68 -245 -237 -404 -486 -457 -115 -24
-315 -24 -430 0 -280 59 -459 254 -499 541 -7 48 -11 298 -11 652 l0 574 195
0 194 0 3 -582z m2180 565 c8 -10 95 -147 193 -305 154 -248 180 -285 190
-270 7 9 88 139 180 287 93 149 175 278 183 288 14 15 38 17 240 17 182 0 223
-2 219 -13 -3 -8 -147 -215 -321 -461 l-316 -447 0 -420 0 -419 -195 0 -195 0
0 419 0 419 -316 447 c-173 245 -318 453 -321 461 -4 12 29 14 219 14 202 0
226 -2 240 -17z m-3612 -2090 c0 -29 -12 -63 -21 -63 -5 0 -9 18 -9 40 0 29 4
40 15 40 8 0 15 -8 15 -17z m4228 -68 c-2 -48 -7 -85 -13 -85 -6 0 -11 37 -13
85 -2 72 0 85 13 85 13 0 15 -13 13 -85z m-4444 -9 l56 -79 0 77 c0 61 3 76
15 76 12 0 15 -19 15 -115 0 -63 -2 -115 -4 -115 -3 0 -29 35 -58 77 l-53 77
-3 -72 c-2 -55 -6 -72 -17 -72 -12 0 -15 21 -15 117 0 64 2 114 4 112 2 -2 29
-40 60 -83z m802 10 c15 -41 31 -73 35 -70 4 2 12 33 19 69 8 43 17 65 26 65
10 0 13 -7 9 -22 -3 -13 -14 -63 -24 -111 -11 -49 -21 -91 -24 -93 -2 -3 -19
34 -36 81 -18 47 -34 85 -35 85 -2 0 -18 -38 -35 -85 -18 -47 -34 -85 -36 -85
-2 0 -13 44 -25 98 -12 53 -24 105 -26 115 -3 10 0 17 9 17 9 0 19 -21 27 -62
7 -35 16 -67 20 -71 4 -4 19 26 34 68 16 41 29 75 31 75 1 0 15 -33 31 -74z
m2449 7 c66 -166 65 -163 51 -163 -8 0 -19 14 -25 30 -9 28 -14 30 -56 30 -43
0 -48 -3 -58 -30 -6 -16 -17 -30 -24 -30 -17 0 -18 -2 22 95 20 47 40 97 45
110 5 14 11 25 14 25 2 0 16 -30 31 -67z m-3763 18 c21 -24 28 -41 28 -74 -1
-69 -44 -107 -124 -107 l-46 0 0 111 0 111 57 -4 c48 -4 61 -10 85 -37z m314
5 c28 -28 34 -42 34 -76 0 -34 -6 -48 -34 -76 -29 -29 -41 -34 -79 -34 -37 0
-51 5 -76 31 -26 25 -31 38 -31 77 1 69 44 112 113 112 31 0 46 -7 73 -34z
m624 24 c0 -5 -11 -10 -25 -10 l-25 0 0 -100 c0 -82 -3 -100 -15 -100 -12 0
-15 18 -15 100 l0 100 -25 0 c-14 0 -25 5 -25 10 0 6 28 10 65 10 37 0 65 -4
65 -10z m736 -24 c28 -28 34 -42 34 -76 0 -34 -6 -48 -34 -76 -29 -29 -41 -34
-79 -34 -37 0 -51 5 -76 31 -26 25 -31 38 -31 77 1 69 44 112 113 112 31 0 46
-7 73 -34z m254 14 c29 -29 26 -74 -6 -99 l-26 -21 26 -34 c30 -39 31 -46 12
-46 -7 0 -26 18 -41 40 -15 22 -34 40 -41 40 -10 0 -14 -13 -14 -40 0 -29 -4
-40 -15 -40 -12 0 -15 19 -15 110 l0 110 50 0 c37 0 55 -5 70 -20z m237 -2
c38 -36 25 -94 -25 -109 -9 -3 -4 -16 17 -43 35 -44 36 -46 17 -46 -8 0 -27
18 -43 40 -36 51 -53 51 -53 0 0 -29 -4 -40 -15 -40 -12 0 -15 19 -15 110 l0
110 47 0 c34 0 53 -6 70 -22z m164 -24 c17 -25 34 -42 38 -37 4 4 19 25 35 46
15 20 34 37 42 37 10 0 3 -18 -25 -57 -36 -49 -41 -63 -41 -110 0 -40 -4 -53
-15 -53 -11 0 -15 12 -15 52 0 45 -6 60 -41 110 -28 41 -36 58 -25 58 8 0 29
-21 47 -46z m374 34 c2 -7 10 -42 17 -78 l13 -65 30 78 c16 42 32 77 36 77 3
0 19 -35 35 -77 l28 -78 17 73 c9 40 19 76 23 79 17 17 16 -15 -5 -116 -13
-61 -26 -108 -30 -103 -4 4 -21 43 -38 87 l-29 80 -15 -35 c-8 -19 -23 -59
-33 -87 -10 -29 -21 -53 -24 -53 -5 0 -50 202 -50 223 0 12 20 8 25 -5z m435
2 c0 -5 -22 -10 -50 -10 l-50 0 0 -40 0 -40 50 0 c28 0 50 -4 50 -10 0 -5 -22
-10 -50 -10 l-50 0 0 -40 0 -40 50 0 c28 0 50 -4 50 -10 0 -6 -28 -10 -65 -10
l-65 0 0 110 0 110 65 0 c37 0 65 -4 65 -10z m290 -40 l0 -50 45 0 45 0 0 50
c0 38 4 50 15 50 12 0 15 -19 15 -110 0 -91 -3 -110 -15 -110 -11 0 -15 12
-15 50 l0 50 -45 0 -45 0 0 -50 c0 -38 -4 -50 -15 -50 -12 0 -15 19 -15 110 0
91 3 110 15 110 11 0 15 -12 15 -50z m529 -30 c19 -44 37 -80 40 -80 4 0 22
36 40 80 19 46 39 80 47 80 12 0 12 -5 1 -32 -8 -18 -27 -62 -42 -98 -48 -115
-42 -116 -96 11 -27 62 -49 114 -49 116 0 2 6 3 13 3 7 0 28 -36 46 -80z m361
71 c0 -6 -24 -11 -52 -13 l-53 -3 -3 -37 -3 -38 55 0 c31 0 56 -4 56 -10 0 -5
-25 -10 -55 -10 l-55 0 0 -40 0 -40 55 0 c30 0 55 -4 55 -10 0 -6 -28 -10 -65
-10 l-65 0 0 110 0 110 65 0 c36 0 65 -4 65 -9z m288 -104 c2 -91 0 -107 -13
-107 -13 0 -15 18 -15 111 0 84 3 110 13 107 8 -3 13 -37 15 -111z m222 103
c0 -5 -11 -10 -25 -10 l-25 0 0 -100 c0 -82 -3 -100 -15 -100 -12 0 -15 18
-15 100 l0 100 -25 0 c-14 0 -25 5 -25 10 0 6 28 10 65 10 37 0 65 -4 65 -10z
m133 -195 c1 -5 -6 -11 -15 -13 -11 -2 -18 3 -18 13 0 17 30 18 33 0z"/>
<path d="M10483 7413 c-22 -4 -23 -9 -23 -99 l0 -94 49 0 48 0 33 88 c18 48
35 93 38 100 3 9 -12 12 -59 11 -35 -1 -74 -4 -86 -6z"/>
<path d="M10058 7403 l-48 -4 0 -90 0 -89 90 0 90 0 0 95 0 95 -42 -2 c-24 -1
-64 -3 -90 -5z"/>
<path d="M10230 7315 l0 -95 95 0 95 0 0 95 0 95 -95 0 -95 0 0 -95z"/>
<path d="M9628 7393 l-78 -4 0 -84 0 -85 95 0 95 0 0 90 c0 80 -2 90 -17 88
-10 -1 -53 -4 -95 -5z"/>
<path d="M9780 7310 l0 -90 90 0 90 0 0 90 0 90 -90 0 -90 0 0 -90z"/>
<path d="M9364 7333 c14 -119 9 -113 82 -113 l64 0 0 85 0 85 -76 0 -76 0 6
-57z"/>
<path d="M9391 7123 c4 -32 8 -70 8 -85 1 -27 3 -28 56 -28 l55 0 0 85 0 85
-63 0 -63 0 7 -57z"/>
<path d="M9550 7095 l0 -85 95 0 95 0 0 85 0 85 -95 0 -95 0 0 -85z"/>
<path d="M9780 7095 l0 -85 90 0 90 0 0 85 0 85 -90 0 -90 0 0 -85z"/>
<path d="M10010 7095 l0 -85 90 0 90 0 0 85 0 85 -90 0 -90 0 0 -85z"/>
<path d="M10230 7095 l0 -85 95 0 95 0 0 85 0 85 -95 0 -95 0 0 -85z"/>
<path d="M10460 7095 c0 -78 11 -110 23 -67 2 9 16 47 30 85 l26 67 -39 0 -40
0 0 -85z"/>
<path d="M9414 6933 c3 -21 6 -48 6 -60 0 -20 5 -23 45 -23 l45 0 0 60 0 60
-51 0 -52 0 7 -37z"/>
<path d="M9550 6905 c0 -64 0 -65 28 -65 15 0 57 -3 95 -7 l67 -6 0 72 0 71
-95 0 -95 0 0 -65z"/>
<path d="M9780 6895 l0 -75 44 0 c24 0 64 -3 90 -6 l46 -7 0 82 0 81 -90 0
-90 0 0 -75z"/>
<path d="M10010 6890 c0 -56 4 -82 13 -84 6 -3 47 -7 90 -9 l77 -5 0 89 0 89
-90 0 -90 0 0 -80z"/>
<path d="M10230 6881 l0 -88 31 -7 c17 -3 53 -6 78 -6 47 0 47 0 64 48 9 26
17 68 17 95 l0 47 -95 0 -95 0 0 -89z"/>
<path d="M9461 6234 c-12 -15 -21 -33 -21 -41 0 -21 46 -63 70 -63 29 0 60 35
60 68 0 60 -72 83 -109 36z m74 -39 c0 -25 -4 -30 -24 -30 -32 0 -49 28 -31
50 7 9 23 15 34 13 16 -2 21 -10 21 -33z"/>
<path d="M10534 6252 c-13 -9 -34 -46 -34 -62 0 -19 48 -60 70 -60 28 0 60 35
60 65 0 46 -60 82 -96 57z m61 -57 c0 -25 -4 -30 -24 -30 -32 0 -49 28 -31 50
7 9 23 15 34 13 16 -2 21 -10 21 -33z"/>
<path d="M11060 5514 l0 -147 71 5 c75 6 105 21 143 72 26 35 27 112 2 151
-30 46 -74 65 -148 65 l-68 0 0 -146z"/>
<path d="M11060 4990 l0 -150 103 0 c118 0 158 14 194 69 48 71 20 175 -57
213 -27 14 -60 18 -137 18 l-103 0 0 -150z"/>
<path d="M7660 3685 l0 -207 93 4 c74 3 101 8 137 28 131 73 138 256 12 344
-39 28 -51 31 -142 34 l-100 4 0 -207z"/>
<path d="M7660 2951 l0 -211 133 0 c159 0 196 9 253 62 101 93 89 243 -24 323
-44 30 -44 30 -203 33 l-159 3 0 -210z"/>
<path d="M11117 2002 c-9 -23 -17 -45 -17 -47 0 -3 16 -5 35 -5 40 0 40 1 16
54 l-17 40 -17 -42z"/>
<path d="M7290 1974 l0 -86 38 6 c75 14 107 92 57 141 -16 17 -35 25 -60 25
l-35 0 0 -86z"/>
<path d="M7600 2057 c-54 -27 -64 -94 -21 -138 45 -44 107 -35 136 21 22 42 5
94 -35 115 -35 18 -48 18 -80 2z"/>
<path d="M8960 2057 c-54 -27 -64 -94 -21 -138 45 -44 107 -35 136 21 22 42 5
94 -35 115 -35 18 -48 18 -80 2z"/>
<path d="M9240 2020 l0 -41 36 3 c22 2 42 10 48 21 17 26 -5 51 -48 55 l-36 3
0 -41z"/>
<path d="M9480 2020 c0 -39 1 -40 35 -40 28 0 38 5 44 23 13 34 -4 57 -44 57
-34 0 -35 -1 -35 -40z"/>
</g>
</svg>
