<?xml version="1.0" standalone="no"?>
<!DOCTYPE svg PUBLIC "-//W3C//DTD SVG 20010904//EN"
 "http://www.w3.org/TR/2001/REC-SVG-20010904/DTD/svg10.dtd">
<svg version="1.0" xmlns="http://www.w3.org/2000/svg"
 width="500.000000pt" height="500.000000pt" viewBox="0 0 500.000000 500.000000"
 preserveAspectRatio="xMidYMid meet">

<g transform="translate(0.000000,500.000000) scale(0.100000,-0.100000)"
fill="#000000" stroke="none">
<path d="M3311 4309 c-90 -15 -170 -34 -177 -41 -7 -7 -44 -96 -84 -198 -39
-102 -74 -188 -78 -192 -4 -3 -324 -14 -712 -23 -388 -9 -715 -18 -727 -21
-45 -9 -45 -25 -3 -376 22 -183 44 -343 50 -355 5 -12 20 -25 32 -28 13 -3
249 -23 526 -45 l502 -39 114 -91 c125 -99 148 -133 118 -170 -17 -20 -26 -21
-662 -27 -696 -6 -680 -5 -680 -58 0 -36 31 -55 89 -55 l52 0 -20 -25 c-45
-58 -31 -137 31 -175 42 -25 74 -25 116 0 62 38 76 117 31 175 l-20 25 490 0
490 0 -25 -37 c-33 -48 -28 -102 12 -144 73 -76 197 -25 196 80 -1 46 -21 82
-57 101 l-25 13 34 23 c46 32 76 83 76 131 0 77 -48 138 -198 253 l-33 25 211
540 c115 297 216 554 224 571 14 30 16 31 158 55 114 19 148 28 166 46 27 27
27 33 1 67 -24 31 -12 31 -218 -5z m-611 -634 l0 -105 -100 0 -100 0 0 99 c0
115 -9 107 123 110 l77 1 0 -105z m209 53 c-12 -29 -30 -77 -41 -105 l-19 -53
-55 0 -54 0 0 105 0 105 95 0 95 0 -21 -52z m-689 -58 l0 -101 -97 3 -98 3 -3
92 -3 92 63 4 c35 2 80 4 101 5 l37 2 0 -100z m240 0 l0 -101 -97 3 -98 3 -3
84 c-2 46 -1 90 2 98 4 9 30 13 101 13 l95 0 0 -100z m-710 -11 l0 -89 -74 0
-74 0 -6 45 c-3 25 -9 65 -12 90 l-6 44 78 3 c44 2 82 2 87 0 4 -2 7 -43 7
-93z m238 9 l-3 -93 -97 -3 -98 -3 0 96 0 95 100 0 101 0 -3 -92z m-238 -228
l0 -90 -59 0 c-69 0 -66 -3 -77 108 l-7 72 72 0 71 0 0 -90z m240 0 l0 -90
-100 0 -100 0 0 90 0 90 100 0 100 0 0 -90z m230 0 l0 -90 -100 0 -100 0 0 90
0 90 100 0 100 0 0 -90z m240 0 l0 -90 -100 0 -100 0 0 90 0 90 100 0 100 0 0
-90z m240 0 l0 -90 -100 0 -100 0 0 90 0 90 100 0 100 0 0 -90z m130 88 c0 -2
-15 -41 -33 -87 -45 -115 -57 -116 -57 -2 l0 91 45 0 c25 0 45 -1 45 -2z
m-1082 -285 l-3 -68 -45 4 c-25 1 -46 4 -48 6 -6 6 -19 115 -14 120 3 3 30 5
59 5 l54 0 -3 -67z m240 -10 l3 -73 -54 0 c-30 0 -75 3 -101 6 l-46 7 0 69 0
69 98 -3 97 -3 3 -72z m232 -9 l0 -87 -91 6 c-50 4 -95 9 -100 13 -10 6 -12
137 -2 147 3 4 48 7 100 7 l93 0 0 -86z m240 -10 l0 -97 -92 7 c-50 4 -95 9
-100 12 -10 6 -11 158 -1 167 3 4 48 7 100 7 l93 0 0 -96z m240 39 c0 -32 -8
-80 -17 -107 l-18 -48 -50 6 c-27 3 -65 6 -82 6 l-33 0 0 100 0 100 100 0 100
0 0 -57z m-915 -718 c14 -13 25 -35 25 -48 0 -32 -35 -67 -67 -67 -34 0 -73
36 -73 67 0 30 42 73 70 73 12 0 32 -11 45 -25z m1120 0 c30 -30 31 -54 4 -89
-14 -17 -30 -26 -50 -26 -65 0 -93 80 -43 119 35 27 59 26 89 -4z"/>
<path d="M1711 2502 c-12 -23 4 -52 29 -52 26 0 45 36 29 56 -16 19 -46 18
-58 -4z"/>
<path d="M2830 2505 c-18 -22 -1 -50 31 -50 20 0 24 5 24 30 0 23 -5 31 -21
33 -11 2 -27 -4 -34 -13z"/>
<path d="M180 2325 c0 -13 267 -15 2340 -15 2073 0 2340 2 2340 15 0 13 -267
15 -2340 15 -2073 0 -2340 -2 -2340 -15z"/>
<path d="M350 1980 c-50 -9 -78 -26 -95 -60 -40 -76 -2 -135 108 -169 37 -11
76 -25 87 -31 44 -24 6 -80 -54 -80 -20 0 -39 11 -62 35 -25 27 -41 35 -68 35
-32 0 -36 -3 -36 -26 0 -37 56 -90 111 -104 121 -33 229 34 216 134 -7 52 -39
81 -115 101 -79 22 -102 32 -108 50 -11 28 16 46 65 43 37 -2 48 -8 56 -25 8
-19 18 -23 52 -23 l42 0 -9 31 c-5 17 -15 38 -21 46 -30 35 -106 55 -169 43z"/>
<path d="M1325 1978 c-94 -20 -160 -102 -159 -198 0 -117 86 -200 206 -200
167 1 259 202 151 331 -47 56 -125 82 -198 67z m106 -101 c63 -42 71 -124 17
-177 -102 -102 -264 40 -171 150 46 55 99 64 154 27z"/>
<path d="M3613 1978 c-27 -6 -59 -24 -88 -51 -83 -75 -92 -191 -20 -275 44
-50 90 -72 155 -72 113 0 200 87 200 199 0 62 -10 89 -49 134 -51 58 -122 81
-198 65z m105 -98 c18 -11 40 -36 49 -55 15 -32 16 -40 3 -78 -17 -47 -67 -87
-109 -87 -56 0 -121 65 -121 120 0 55 65 120 120 120 14 0 40 -9 58 -20z"/>
<path d="M700 1940 l0 -40 60 0 60 0 0 -160 0 -160 40 0 40 0 0 160 0 160 60
0 60 0 0 40 0 40 -160 0 -160 0 0 -40z"/>
<path d="M1750 1780 l0 -200 40 0 39 0 3 72 3 71 48 -71 47 -72 56 0 55 0 -56
72 -56 71 26 17 c81 53 82 171 3 220 -26 16 -50 20 -120 20 l-88 0 0 -200z
m168 118 c17 -17 15 -68 -5 -90 -9 -10 -30 -18 -50 -18 l-33 0 0 60 0 60 38 0
c21 0 43 -5 50 -12z"/>
<path d="M2190 1780 l0 -200 115 0 115 0 0 40 0 40 -70 0 -70 0 0 40 0 40 70
0 70 0 0 40 0 40 -70 0 -70 0 0 40 0 40 70 0 70 0 0 40 0 40 -115 0 -115 0 0
-200z"/>
<path d="M2610 1780 l0 -200 45 0 45 0 0 80 0 80 70 0 70 0 0 40 0 40 -70 0
-70 0 0 40 0 40 70 0 70 0 0 40 0 40 -115 0 -115 0 0 -200z"/>
<path d="M3030 1780 l0 -200 40 0 39 0 3 72 3 71 48 -71 47 -72 56 0 55 0 -56
72 -56 71 26 17 c81 53 82 171 3 220 -26 16 -50 20 -120 20 l-88 0 0 -200z
m168 118 c17 -17 15 -68 -5 -90 -9 -10 -30 -18 -50 -18 l-33 0 0 60 0 60 38 0
c21 0 43 -5 50 -12z"/>
<path d="M4040 1780 l0 -200 45 0 44 0 3 120 3 120 65 -117 65 -118 43 -3 42
-3 0 200 0 201 -40 0 -40 0 0 -122 c0 -73 -4 -118 -9 -112 -5 5 -37 60 -71
122 l-61 112 -45 0 -44 0 0 -200z"/>
<path d="M4510 1940 l0 -40 60 0 60 0 0 -160 0 -160 40 0 40 0 0 160 0 160 60
0 60 0 0 40 0 40 -160 0 -160 0 0 -40z"/>
<path d="M1020 1435 c0 -19 5 -35 10 -35 6 0 10 16 10 35 0 19 -4 35 -10 35
-5 0 -10 -16 -10 -35z"/>
<path d="M4720 1395 c0 -43 4 -75 10 -75 6 0 10 32 10 75 0 43 -4 75 -10 75
-6 0 -10 -32 -10 -75z"/>
<path d="M3632 1360 c-22 -55 -36 -100 -31 -100 5 0 14 11 19 25 8 21 16 25
53 25 38 0 46 -4 57 -27 7 -16 14 -23 16 -17 3 5 -13 51 -34 102 l-38 92 -42
-100z m47 -28 c-17 -2 -33 -2 -35 1 -2 2 3 21 12 43 l17 39 18 -40 18 -40 -30
-3z"/>
<path d="M290 1355 l0 -95 39 0 c60 0 101 39 101 95 0 56 -41 95 -101 95 l-39
0 0 -95z m105 50 c14 -13 25 -36 25 -50 0 -36 -42 -75 -80 -75 l-30 0 0 75 0
75 30 0 c19 0 40 -9 55 -25z"/>
<path d="M549 1421 c-21 -22 -29 -39 -29 -66 0 -27 8 -44 29 -66 22 -21 39
-29 66 -29 27 0 44 8 66 29 21 22 29 39 29 66 0 27 -8 44 -29 66 -22 21 -39
29 -66 29 -27 0 -44 -8 -66 -29z m121 -11 c12 -12 20 -33 20 -55 0 -68 -77
-101 -127 -53 -50 47 -17 128 52 128 22 0 43 -8 55 -20z"/>
<path d="M800 1356 c0 -109 18 -132 22 -28 l3 67 44 -60 c24 -33 48 -64 52
-69 5 -6 9 32 9 87 0 110 -17 134 -22 30 l-3 -68 -42 62 c-24 34 -47 65 -53
68 -6 4 -10 -28 -10 -89z"/>
<path d="M1120 1440 c0 -5 9 -10 20 -10 18 0 20 -7 20 -85 0 -50 4 -85 10 -85
6 0 10 35 10 85 0 77 2 85 19 85 11 0 23 5 26 10 4 6 -15 10 -49 10 -31 0 -56
-4 -56 -10z"/>
<path d="M1444 1356 c11 -52 23 -93 27 -90 4 2 17 33 30 69 12 36 25 65 29 65
3 0 14 -24 24 -52 36 -101 38 -101 57 -13 10 44 18 89 18 100 1 36 -16 1 -29
-60 -10 -48 -14 -56 -21 -40 -5 11 -18 43 -30 70 l-21 50 -25 -68 c-14 -37
-28 -66 -31 -63 -2 3 -10 31 -16 62 -6 32 -16 59 -22 61 -7 2 -3 -33 10 -91z"/>
<path d="M1739 1421 c-21 -22 -29 -39 -29 -66 0 -27 8 -44 29 -66 41 -40 91
-40 132 0 21 22 29 39 29 66 0 27 -8 44 -29 66 -22 21 -39 29 -66 29 -27 0
-44 -8 -66 -29z m121 -11 c12 -12 20 -33 20 -55 0 -68 -77 -101 -127 -53 -50
47 -17 128 52 128 22 0 43 -8 55 -20z"/>
<path d="M1990 1355 c0 -57 4 -95 10 -95 6 0 10 15 10 34 0 41 17 55 35 30 32
-46 54 -68 60 -62 4 4 -5 21 -19 39 l-27 32 23 11 c29 15 36 61 12 87 -12 13
-30 19 -61 19 l-43 0 0 -95z m99 57 c15 -28 -13 -62 -50 -62 -27 0 -29 2 -29
40 0 39 1 40 35 40 23 0 37 -6 44 -18z"/>
<path d="M2200 1355 c0 -57 4 -95 10 -95 6 0 10 18 10 40 0 22 4 40 9 40 5 0
24 -18 41 -40 40 -50 62 -53 24 -3 -18 24 -24 38 -16 41 23 7 42 33 42 57 0
31 -35 55 -82 55 l-38 0 0 -95z m98 47 c5 -32 -15 -52 -49 -52 -27 0 -29 3
-29 41 l0 40 38 -3 c30 -2 38 -7 40 -26z"/>
<path d="M2400 1445 c0 -3 16 -27 35 -54 26 -36 35 -59 36 -92 l2 -44 6 50 c4
33 17 65 39 94 18 24 29 47 26 50 -3 3 -14 -5 -24 -19 -50 -68 -43 -66 -74
-21 -25 36 -46 52 -46 36z"/>
<path d="M2750 1447 c0 -12 39 -180 43 -183 2 -3 15 24 28 60 13 35 28 65 33
66 6 1 22 -31 36 -71 l27 -72 21 99 c19 90 21 116 7 102 -3 -2 -11 -33 -19
-69 l-13 -64 -17 40 c-9 22 -22 53 -29 69 l-13 29 -24 -59 c-13 -32 -26 -63
-30 -67 -4 -5 -13 21 -20 57 -7 36 -16 66 -21 66 -5 0 -9 -1 -9 -3z"/>
<path d="M3040 1355 l0 -95 55 0 c30 0 55 5 55 10 0 6 -20 10 -45 10 -45 0
-45 0 -45 34 0 34 1 35 48 39 l47 3 -47 2 c-48 2 -48 2 -48 37 0 35 0 35 45
35 25 0 45 5 45 10 0 6 -25 10 -55 10 l-55 0 0 -95z"/>
<path d="M3380 1355 c0 -95 16 -133 22 -52 3 42 3 42 46 45 l42 3 0 -45 c0
-25 5 -46 10 -46 6 0 10 38 10 95 0 57 -4 95 -10 95 -5 0 -10 -21 -10 -46 l0
-45 -42 3 c-43 3 -43 3 -46 46 -6 80 -22 42 -22 -53z"/>
<path d="M3829 1428 c5 -13 19 -45 31 -73 12 -27 26 -61 32 -75 8 -22 11 -23
19 -8 27 48 77 179 68 176 -6 -2 -25 -37 -42 -78 l-31 -74 -35 77 c-19 42 -38
77 -42 77 -5 0 -5 -10 0 -22z"/>
<path d="M4070 1355 l0 -95 55 0 c30 0 55 5 55 10 0 6 -20 10 -45 10 -45 0
-45 0 -45 34 0 34 1 35 48 39 l47 3 -47 2 c-48 2 -48 2 -48 37 0 35 0 35 45
35 25 0 45 5 45 10 0 6 -25 10 -55 10 l-55 0 0 -95z"/>
<path d="M4410 1355 c0 -57 4 -95 10 -95 6 0 10 38 10 95 0 57 -4 95 -10 95
-6 0 -10 -38 -10 -95z"/>
<path d="M4520 1440 c0 -5 9 -10 20 -10 18 0 20 -7 20 -85 0 -50 4 -85 10 -85
6 0 10 35 10 85 0 77 2 85 19 85 11 0 23 5 26 10 4 6 -15 10 -49 10 -31 0 -56
-4 -56 -10z"/>
<path d="M4717 1284 c-8 -8 1 -24 14 -24 5 0 9 7 9 15 0 15 -12 20 -23 9z"/>
</g>
</svg>
